HIERARCHY
ROOT hip
{
	OFFSET 0.000000 0.000000 0.000000 
	CHANNELS 6 Xposition Yposition Zposition Xrotation Zrotation Yrotation
	JOINT abdomen
	{
		OFFSET 0.000000 3.402643 0.000000 
		CHANNELS 3 Xrotation Zrotation Yrotation
		JOINT chest
		{
			OFFSET 0.000000 8.438565 -0.680529 
			CHANNELS 3 Xrotation Zrotation Yrotation
			JOINT neck
			{
				OFFSET 0.000000 10.207942 -0.272212 
				CHANNELS 3 Xrotation Zrotation Yrotation
				JOINT head
				{
					OFFSET 0.000000 3.130431 0.000000 
					CHANNELS 3 Xrotation Zrotation Yrotation
					End Site
					{
						OFFSET 0.000000 3.130435 0.000000 
					}
				}
			}
			JOINT lCollar
			{
				OFFSET 3.470700 6.669187 -0.816635 
				CHANNELS 3 Yrotation Zrotation Xrotation
				JOINT lShldr
				{
					OFFSET 3.198488 0.000000 0.000000 
					CHANNELS 3 Zrotation Yrotation Xrotation
					JOINT lForeArm
					{
						OFFSET 10.139888 0.000000 0.000000 
						CHANNELS 3 Yrotation Zrotation Xrotation
						JOINT lHand
						{
							OFFSET 8.370511 0.000000 0.000000 
							CHANNELS 3 Zrotation Yrotation Xrotation
							End Site
							{
								OFFSET 4.083176 0.000000 0.000000 
							}
						}
					}
				}
			}
			JOINT rCollar
			{
				OFFSET -3.470700 6.669187 -0.816635 
				CHANNELS 3 Yrotation Zrotation Xrotation
				JOINT rShldr
				{
					OFFSET -3.198488 0.000000 0.000000 
					CHANNELS 3 Zrotation Yrotation Xrotation
					JOINT rForeArm
					{
						OFFSET -10.139888 0.000000 0.000000 
						CHANNELS 3 Yrotation Zrotation Xrotation
						JOINT rHand
						{
							OFFSET -8.370511 0.000000 0.000000 
							CHANNELS 3 Zrotation Yrotation Xrotation
							End Site
							{
								OFFSET -4.083176 0.000000 0.000000 
							}
						}
					}
				}
			}
		}
	}
	JOINT lThigh
	{
		OFFSET 5.308129 -1.633274 1.361059 
		CHANNELS 3 Xrotation Zrotation Yrotation
		JOINT lShin
		{
			OFFSET -2.041588 -20.007561 0.000000 
			CHANNELS 3 Xrotation Zrotation Yrotation
			JOINT lFoot
			{
				OFFSET 0.000000 -19.190928 -1.224953 
				CHANNELS 3 Xrotation Yrotation Zrotation
				End Site
				{
					OFFSET 0.000000 -2.449906 4.627600 
				}
			}
		}
	}
	JOINT rThigh
	{
		OFFSET -5.308129 -1.633274 1.361059 
		CHANNELS 3 Xrotation Zrotation Yrotation
		JOINT rShin
		{
			OFFSET 2.041588 -20.007561 0.000000 
			CHANNELS 3 Xrotation Zrotation Yrotation
			JOINT rFoot
			{
				OFFSET 0.000000 -19.190928 -1.224953 
				CHANNELS 3 Xrotation Yrotation Zrotation
				End Site
				{
					OFFSET 0.000000 -2.449906 4.627600 
				}
			}
		}
	}
}
MOTION
Frames: 16
Frame Time: 0.011111
57.916786 53.763950 11.696838 -5.590641 0.885106 164.368912 15.729328 4.578968 8.060496 -19.234184 -1.322556 1.786542 -18.086966 -1.303496 -0.915624 27.240913 -1.756945 -2.046759 -0.892466 -0.957000 1.218467 9.461826 -82.801163 -8.874338 -47.551483 7.096992 7.183393 8.524705 12.647240 -50.589241 -4.058817 0.661413 2.306497 41.589283 82.487000 32.171196 59.881226 -9.269816 12.361086 -8.534408 -12.637552 38.656109 -31.548319 17.674679 -17.564053 15.604541 -5.895186 -2.938325 -25.516991 16.721237 4.331036 13.122818 -4.812870 6.760849 11.376618 5.955219 2.309441 -13.079590 5.044387 4.340840 
57.885933 53.703766 11.226823 -5.668230 0.839760 163.781006 15.610890 4.451048 7.852811 -19.117096 -1.257881 1.734965 -18.318792 -1.188770 -0.860440 27.451126 -2.012958 -1.972117 -0.892466 -0.957000 1.218467 9.649175 -82.524063 -9.119295 -47.365353 7.049383 7.108342 8.524705 12.647240 -50.501354 -4.058817 0.661413 2.306497 42.009720 82.718369 31.819904 59.647530 -9.251591 12.255023 -8.534408 -12.637552 38.070171 -31.567327 17.450060 -17.256794 15.503323 -5.887181 -2.918869 -26.270983 16.938616 4.701633 13.723926 -4.986179 6.422638 10.975025 5.962171 2.264120 -12.896989 5.141526 4.346602 
57.851753 53.644176 10.754388 -5.743906 0.877186 163.155304 15.511339 4.497013 7.554462 -19.136742 -1.149947 1.657170 -18.512011 -1.230686 -0.724258 27.817488 -2.272823 -1.763965 -0.892466 -0.957000 1.218467 9.410357 -82.046463 -9.307645 -47.178200 6.995120 7.036333 8.524705 12.647240 -50.804085 -4.058817 0.661413 2.306497 41.491917 82.673706 31.954832 59.721813 -9.257428 12.290683 -8.534408 -12.637552 38.841656 -31.584728 17.283724 -17.435392 15.427007 -5.897324 -2.893522 -27.446634 17.022871 5.202196 14.272343 -5.104151 6.061837 10.646112 5.973495 2.216499 -12.666624 5.527129 4.443103 
57.830582 53.566746 10.280745 -5.876070 1.274279 162.234329 15.504390 4.844416 7.716697 -19.048861 -1.162264 1.674929 -18.570017 -1.298904 -0.647100 27.749464 -2.309008 -1.656461 -0.892466 -0.957000 1.218467 9.485925 -81.663277 -9.348289 -47.043549 6.957728 6.981083 8.524705 12.647240 -50.804085 -4.058817 0.661413 2.306497 41.104809 82.715897 31.347511 59.636635 -9.250396 12.254537 -8.534408 -12.637552 38.695171 -31.529448 17.635841 -17.199194 15.416375 -5.897008 -2.902339 -28.118742 17.363850 5.620902 14.891821 -4.891666 6.370138 10.410337 5.975126 2.166249 -12.504086 5.629442 4.462439 
57.810921 53.493858 9.782903 -5.927851 1.680733 161.206787 15.566694 5.061087 8.100348 -19.019497 -1.231569 1.762149 -18.434996 -1.319649 -0.718881 27.443485 -2.143948 -1.786876 -0.892466 -0.957000 1.218467 9.823178 -81.561272 -9.308922 -46.919506 6.925108 6.934622 8.524705 12.647240 -50.765026 -4.058817 0.661413 2.306497 40.391590 82.486488 30.506052 59.625893 -9.248574 12.244308 -8.534408 -12.637552 38.499855 -31.206015 18.035851 -16.136063 15.521205 -5.896188 -2.911970 -28.048765 17.586918 5.672792 15.609380 -4.752738 6.728375 10.164026 5.971703 2.142964 -12.343181 5.752089 4.469949 
57.780373 53.421566 9.285969 -6.045389 1.899171 160.311325 15.495922 5.127339 8.289067 -19.156076 -1.324950 1.814034 -18.364397 -1.155481 -0.725247 27.443359 -2.135025 -1.746764 -0.892466 -0.957000 1.218467 9.907208 -81.286011 -8.802106 -46.919506 6.925108 6.934622 8.524705 12.647240 -50.628311 -4.058817 0.661413 2.306497 39.557034 82.150085 30.172289 59.689434 -9.252652 12.269718 -8.534408 -12.637552 38.988144 -30.945192 18.231678 -14.664510 15.753901 -5.886128 -2.951463 -27.399282 17.748808 5.446816 16.167526 -4.821728 7.041411 9.875715 5.980711 2.079115 -12.106639 5.899070 4.495769 
57.763443 53.335369 8.803252 -6.186745 2.101144 159.394821 15.460616 5.191357 8.316603 -19.107300 -1.287433 1.812888 -18.660782 -0.931736 -0.560401 27.623554 -2.397138 -1.416227 -0.892466 -0.957000 1.218467 10.019293 -80.736374 -8.443026 -46.950565 6.933137 6.943489 8.524705 12.647240 -50.393932 -4.058817 0.661413 2.306497 38.668560 82.087364 29.856226 59.796078 -9.263131 12.326394 -8.534408 -12.637552 39.681499 -30.773550 18.425280 -13.496546 16.075727 -5.888987 -2.980930 -27.108089 18.060257 5.431619 16.657665 -4.910656 7.377340 9.594596 5.972238 2.052962 -11.784522 6.091426 4.515677 
57.743172 53.247051 8.285147 -6.239984 2.426452 158.608200 15.496875 5.280392 8.362171 -18.941460 -1.175516 1.819207 -19.018835 -0.710853 -0.528097 27.835325 -2.725927 -1.382431 -0.892466 -0.957000 1.218467 10.285700 -80.439735 -8.726721 -46.888443 6.917063 6.925766 8.524705 12.647240 -50.579475 -4.058817 0.661413 2.306497 38.076195 82.100624 29.013674 59.774448 -9.260198 12.314075 -8.534408 -12.637552 39.466652 -30.489002 18.619955 -12.375903 16.401569 -5.877349 -3.018272 -26.413635 18.536835 5.285601 17.356668 -4.918483 7.607234 9.334367 5.982094 2.039493 -11.485458 6.380263 4.563325 
57.710510 53.149963 7.728630 -6.241747 2.658574 157.953110 15.417663 5.288107 8.457582 -18.941462 -1.175563 1.838738 -18.893124 -0.603098 -0.642154 27.671227 -2.773098 -1.571934 -0.892466 -0.957000 1.218467 10.410680 -80.418793 -9.029169 -46.764652 6.883491 6.869796 8.524705 12.647240 -51.272839 -4.058817 0.661413 2.306497 38.183743 82.080460 28.076729 59.444740 -9.232033 12.163575 -8.534408 -12.637552 38.587746 -30.046623 18.622202 -11.224582 16.776318 -5.868860 -3.089608 -25.935223 18.767012 5.160220 18.035097 -5.086903 7.673257 9.148034 5.983490 2.003359 -11.179885 6.802969 4.630530 
57.691452 53.039574 7.184815 -6.324644 2.737431 157.140457 15.230567 5.179378 8.613483 -19.058475 -1.298773 1.899677 -18.511738 -0.671692 -0.591933 27.054771 -2.299215 -1.400580 -0.892466 -0.957000 1.218467 10.537742 -80.280396 -8.677849 -46.691994 6.862053 6.843683 8.524705 12.647240 -51.624401 -4.058817 0.661413 2.306497 38.435734 82.069214 27.452957 59.040257 -9.194758 11.986938 -8.534408 -12.637552 38.236183 -29.601913 18.580917 -9.939734 17.226778 -5.846562 -3.167154 -25.829054 18.774822 5.108887 18.490347 -5.436792 7.817974 9.031138 5.983665 1.992786 -10.729940 7.302204 4.711132 
57.672699 52.951859 6.646446 -6.414363 2.800971 156.337906 15.018354 5.056552 8.564746 -19.058432 -1.337836 1.899659 -18.419432 -0.553949 -0.459563 26.728838 -2.169121 -1.083827 -0.892466 -0.957000 1.218467 10.714025 -79.916481 -8.425003 -46.619343 6.840516 6.816471 8.524705 12.647240 -52.268936 -4.058817 0.661413 2.306497 38.297096 82.079803 27.139788 58.848125 -9.173477 11.897002 -8.534408 -12.637552 38.343609 -29.254837 18.533752 -8.464725 17.823984 -5.846814 -3.220963 -24.875586 19.228975 4.851970 18.885738 -5.809734 7.974000 8.880980 5.981223 1.950240 -10.205153 7.876031 4.785759 
57.648209 52.878357 6.065127 -6.303209 2.782305 155.534195 14.851937 4.876588 8.220548 -18.873110 -1.187451 1.817767 -18.509638 -0.266824 -0.274201 26.891119 -2.640621 -0.691229 -0.892466 -0.957000 1.218467 10.673840 -79.193024 -8.232900 -46.609634 6.842049 6.815005 8.524705 12.647240 -52.737679 -4.058817 0.661413 2.306497 38.117760 82.237221 27.196909 58.849476 -9.178528 11.905253 -8.534408 -12.637552 38.792828 -28.628593 18.289026 -7.161688 18.518488 -5.818906 -3.328224 -24.168709 19.739414 4.686565 19.344006 -6.365491 8.026269 8.937232 5.983895 1.984957 -9.780062 8.399078 4.838110 
57.621284 52.770687 5.459311 -6.193312 2.898122 154.912766 14.627693 4.836218 8.039445 -18.697418 -1.153701 1.775317 -18.309395 -0.245700 -0.092282 26.876696 -2.516617 -0.272641 -0.892466 -0.957000 1.218467 10.658900 -78.801979 -7.551127 -46.650387 6.848713 6.825225 8.524705 12.647240 -51.946671 -4.058817 0.661413 2.306497 37.729927 82.131851 26.590218 58.848125 -9.173477 11.897002 -8.534408 -12.637552 39.261578 -27.932661 18.062994 -5.967731 19.276375 -5.810727 -3.424061 -23.842218 19.623493 4.553144 19.822937 -6.786395 7.976932 9.195335 5.982765 1.998001 -9.064998 9.119423 4.920545 
57.592850 52.639725 4.901583 -6.400604 3.429450 154.655319 14.457446 5.271142 8.018945 -18.668013 -1.242217 1.735027 -18.152868 -0.360799 -0.039257 26.605001 -1.983549 -0.103966 -0.892466 -0.957000 1.218467 10.847662 -78.927162 -7.442608 -46.516735 6.816735 6.779068 8.524705 12.647240 -51.585339 -4.058817 0.661413 2.306497 37.204399 82.027084 25.172310 58.635605 -9.152745 11.803578 -8.534408 -12.637552 39.300640 -27.789743 18.240425 -5.185086 20.114063 -5.757933 -3.550030 -23.262018 19.336607 4.211154 20.368071 -6.580161 7.757281 9.231510 5.980761 2.001435 -7.858826 9.881108 4.895473 
57.560490 52.547779 4.342648 -6.513955 3.798301 154.344482 14.452105 5.518744 7.755272 -18.580156 -1.214818 1.645490 -18.483274 -0.278979 -0.003208 26.496756 -1.945989 -0.060443 -0.892466 -0.957000 1.218467 11.041745 -78.837166 -8.106389 -46.340691 6.764142 6.707802 8.524705 12.647240 -52.132214 -4.058817 0.661413 2.306497 36.631145 82.235016 24.202227 58.466358 -9.138298 11.731494 -8.534408 -12.637552 39.320171 -27.728504 18.248749 -5.005625 20.990042 -5.737693 -3.684265 -21.673206 19.691517 3.679029 20.908030 -6.591503 7.536360 9.056553 5.981309 1.975853 -6.577837 10.403230 4.782305 
57.522682 52.500599 3.701746 -6.270888 3.742928 153.966507 14.392981 5.152335 7.329490 -18.463078 -1.129247 1.546304 -18.521589 -0.115162 -0.036127 26.030163 -2.145900 -0.126151 -0.892466 -0.957000 1.218467 11.106074 -78.650719 -8.565866 -46.227367 6.735220 6.670867 8.524705 12.647240 -52.522839 -4.058817 0.661413 2.306497 36.072144 82.227654 23.711630 58.486698 -9.136873 11.735299 -8.534408 -12.637552 38.880718 -27.407776 17.624674 -5.719938 21.825214 -5.709474 -3.793121 -19.911377 20.545467 3.142749 21.391006 -7.252637 7.129718 9.206500 5.983502 1.998912 -5.423176 10.991585 4.691310 
